<svg id="home_bar" data-name="home bar" xmlns="http://www.w3.org/2000/svg" viewBox="0 0 140.43 100.21"><defs><style>.cls-1{fill:#303a47;}.cls-2{fill:#fff;}</style></defs><title>Gin Foundry.com</title><g id="logo"><rect class="cls-1" width="131.69" height="100.21" rx="12.79" ry="12.79"/><path class="cls-1" d="M1035.41,37a3.4,3.4,0,0,0-1.25-1.27,3.4,3.4,0,0,0-3.43,0,3.41,3.41,0,0,0-1.27,1.26,3.38,3.38,0,0,0,0,3.42,3.42,3.42,0,0,0,1.26,1.26,3.33,3.33,0,0,0,1.71.47,3.46,3.46,0,0,0,3-1.71,3.34,3.34,0,0,0,.46-1.7A3.41,3.41,0,0,0,1035.41,37Zm-0.89,3.8a2.84,2.84,0,0,1-2.07.86,2.9,2.9,0,0,1-1.48-.4,3,3,0,0,1-1.09-1.09,2.89,2.89,0,0,1-.4-1.47,2.85,2.85,0,0,1,.88-2.11,2.88,2.88,0,0,1,2.09-.86,2.85,2.85,0,0,1,1.48.4,3,3,0,0,1,1.47,2.56A2.85,2.85,0,0,1,1034.52,40.78Z" transform="translate(-895.44 -35.17)"/><path class="cls-1" d="M1032.87,36.74a1.23,1.23,0,0,1,.84.26,0.9,0.9,0,0,1,.3.72,1.14,1.14,0,0,1-.15.6,0.79,0.79,0,0,1-.5.35h0a0.66,0.66,0,0,1,.26.1,0.58,0.58,0,0,1,.16.18,0.78,0.78,0,0,1,.09.23,2.25,2.25,0,0,1,0,.26c0,0.09,0,.18,0,0.28a2.28,2.28,0,0,0,0,.28,1.73,1.73,0,0,0,.06.26,0.65,0.65,0,0,0,.12.22h-0.55a0.32,0.32,0,0,1-.07-0.16,1.64,1.64,0,0,1,0-.22c0-.08,0-0.17,0-0.26a1.76,1.76,0,0,0,0-.28,2.53,2.53,0,0,0-.05-0.26,0.62,0.62,0,0,0-.1-0.21,0.49,0.49,0,0,0-.18-0.15,0.66,0.66,0,0,0-.29-0.05h-1.21v1.6h-0.5V36.74h1.76Zm0.1,1.7a0.72,0.72,0,0,0,.28-0.1,0.56,0.56,0,0,0,.19-0.2,0.68,0.68,0,0,0,.07-0.33,0.67,0.67,0,0,0-.16-0.46,0.65,0.65,0,0,0-.51-0.18h-1.24v1.3h1Z" transform="translate(-895.44 -35.17)"/><path class="cls-2" d="M942.35,79.54c0,2.41.36,3.86,1.45,4.28a0.5,0.5,0,0,1-.06.72,13.49,13.49,0,0,0-3,.54A47.12,47.12,0,0,1,930,86.65c-7.17,0-13.74-2-18.39-6.69a19,19,0,0,1-5.55-13.68A20.69,20.69,0,0,1,911.48,52c4-4.22,10-7.05,19.11-7.05a36,36,0,0,1,7.66.9,15.91,15.91,0,0,0,3.74.54,67.82,67.82,0,0,0,.9,8.74,1.2,1.2,0,0,1-1.63.18c-1.69-6.51-6.21-8.56-12.36-8.56-11.69,0-16.82,8.32-16.82,17.36,0,11.57,6,20.68,18.08,20.68,3.74,0,6-.78,6.63-1.81a6.72,6.72,0,0,0,.6-3.44V77.13c0-5.06-.18-5.43-3.92-5.85l-2.65-.3a1,1,0,0,1,0-1.51c1.75,0.12,5.06.18,8.62,0.18,2.35,0,4.4-.06,6.39-0.18A1.05,1.05,0,0,1,945.9,71l-1,.12c-2.53.3-2.59,2-2.59,5.06v3.38Z" transform="translate(-895.44 -35.17)"/><path class="cls-2" d="M1011,75.44c0,1.81,0,9,.18,10.55a1.09,1.09,0,0,1-1.15.66c-0.72-1-2.47-3.13-7.72-9.1l-14-15.91c-1.63-1.87-5.73-6.81-7-8.14h-0.12a15.35,15.35,0,0,0-.3,3.92V70.56c0,2.83.06,10.67,1.08,12.48,0.36,0.66,1.57,1,3.07,1.15L987,84.36a1.11,1.11,0,0,1-.12,1.51c-2.71-.12-4.82-0.18-7.05-0.18-2.53,0-4.16.06-6.27,0.18a1.12,1.12,0,0,1-.12-1.51l1.63-.18c1.39-.18,2.35-0.54,2.65-1.21,0.84-2.17.78-9.52,0.78-12.42V53.13c0-1.69-.06-3-1.33-4.34a6.54,6.54,0,0,0-3.74-1.45l-1-.12a1.06,1.06,0,0,1,.12-1.51c2.53,0.18,5.73.18,6.81,0.18a19.46,19.46,0,0,0,2.77-.18c1.21,3.07,8.32,11,10.31,13.26l5.85,6.57c4.16,4.64,7.11,8,9.95,10.91h0.12a6.06,6.06,0,0,0,.24-2.53V61c0-2.83-.06-10.67-1.21-12.48-0.36-.54-1.33-0.9-3.74-1.21l-1-.12a1,1,0,0,1,.12-1.51c2.77,0.12,4.82.18,7.11,0.18,2.59,0,4.16-.06,6.21-0.18a1.06,1.06,0,0,1,.12,1.51l-0.84.12c-1.93.3-3.13,0.78-3.38,1.27-1,2.17-.9,9.65-0.9,12.42V75.44Z" transform="translate(-895.44 -35.17)"/><path class="cls-2" d="M970.65,77.54c-0.46-4.47-4.83-8.4-6.37-10.62-1.14-1.64-1.69-3.49-2-6.61,0,0-.08-0.91-0.09-1a1.26,1.26,0,0,1,.49-1.18c1.87-1.26-.76-1.82-2.45-1.79s-4.32.54-2.45,1.79a1.26,1.26,0,0,1,.49,1.18c0,0.14-.09,1-0.09,1-0.35,3.12-.91,5-2,6.61-1.54,2.22-5.91,6.15-6.37,10.62-0.66,6.48,4.73,9.09,10.45,9.11h0C965.92,86.63,971.31,84,970.65,77.54Z" transform="translate(-895.44 -35.17)"/><path class="cls-2" d="M962.72,47.33a5.1,5.1,0,0,0-2.53-.5,4.15,4.15,0,0,0-2.55.54,0.17,0.17,0,0,0-.07.16v1.71c0,0.06,0,.1.11,0.06a2.92,2.92,0,0,1,.65-0.23v2.18a0.12,0.12,0,0,0,.14.12,7.77,7.77,0,0,1,1.72-.18,7.88,7.88,0,0,1,1.73.18,0.11,0.11,0,0,0,.13-0.11V49.09a3.33,3.33,0,0,1,.65.24,0.07,0.07,0,0,0,.1-0.08V47.5A0.15,0.15,0,0,0,962.72,47.33Z" transform="translate(-895.44 -35.17)"/><path class="cls-2" d="M909.73,115.63c0,0.58.06,0.58,0.71,0.58h1.47a8.07,8.07,0,0,0,1.83-.13,0.81,0.81,0,0,0,.54-0.75l0.19-.86a0.45,0.45,0,0,1,.56,0c0,0.52-.09,1.38-0.09,2.18s0.09,1.59.09,2.09a0.45,0.45,0,0,1-.56,0l-0.22-.84a1,1,0,0,0-.69-0.82,7.29,7.29,0,0,0-1.66-.11h-1.47c-0.65,0-.71,0-0.71.58v3c0,2.26,0,2.59,1.31,2.69l0.73,0.06a0.42,0.42,0,0,1,0,.54c-1.27,0-2-.06-2.87-0.06s-1.68,0-2.69.06a0.42,0.42,0,0,1,0-.54l0.54-.06c1.25-.15,1.29-0.43,1.29-2.69v-7.76c0-2.26,0-2.57-1.29-2.72l-0.35,0a0.42,0.42,0,0,1,0-.54c0.91,0,1.64.06,2.5,0.06h4c1.38,0,2.63,0,2.91-.06,0,1,0,2,.06,2.85a0.39,0.39,0,0,1-.52.07,2.11,2.11,0,0,0-1.51-2,9.17,9.17,0,0,0-2.09-.13h-1.32c-0.65,0-.65,0-0.65.86v4.55Z" transform="translate(-895.44 -35.17)"/><path class="cls-2" d="M918.87,116.82a7.45,7.45,0,0,1,7.67-7.61A7.1,7.1,0,0,1,934,116.6a7.36,7.36,0,0,1-7.48,7.52A7.26,7.26,0,0,1,918.87,116.82Zm13,0.45c0-3.56-1.57-7.39-5.69-7.39-2.24,0-5.15,1.53-5.15,6.25,0,3.19,1.55,7.33,5.8,7.33C929.42,123.46,931.87,121.52,931.87,117.27Z" transform="translate(-895.44 -35.17)"/><path class="cls-2" d="M948.16,115c0-1.34,0-3.82-.41-4.46a1.33,1.33,0,0,0-1.08-.45l-0.54,0a0.39,0.39,0,0,1,0-.52c0.82,0,1.62.06,2.46,0.06s1.49,0,2.26-.06a0.37,0.37,0,0,1,0,.52l-0.52,0a1.26,1.26,0,0,0-1.08.52,19.28,19.28,0,0,0-.3,4.4v2.44c0,1.88-.3,3.86-1.51,5.15a5.68,5.68,0,0,1-4.12,1.57,6.12,6.12,0,0,1-4-1.19c-1.14-.95-1.68-2.52-1.68-5.09v-5.09c0-2.24,0-2.61-1.29-2.72l-0.54,0a0.39,0.39,0,0,1,0-.52c1.08,0,1.81.06,2.67,0.06s1.6,0,2.65-.06a0.39,0.39,0,0,1,0,.52l-0.52,0c-1.25.11-1.29,0.47-1.29,2.72v4.66c0,3.47,1.08,5.76,4.38,5.76,3.13,0,4.31-2.46,4.31-5.73V115Z" transform="translate(-895.44 -35.17)"/><path class="cls-2" d="M967.17,120.12c0,0.65,0,3.21.06,3.77a0.39,0.39,0,0,1-.41.24c-0.26-.37-0.88-1.12-2.76-3.26l-5-5.69c-0.58-.67-2-2.44-2.5-2.91h0a5.45,5.45,0,0,0-.11,1.4v4.7c0,1,0,3.82.39,4.46a1.42,1.42,0,0,0,1.1.41l0.67,0.06a0.39,0.39,0,0,1,0,.54c-1,0-1.72-.06-2.52-0.06s-1.49,0-2.24.06a0.4,0.4,0,0,1,0-.54l0.58-.06a1.16,1.16,0,0,0,.95-0.43,20.81,20.81,0,0,0,.28-4.44v-6.23a2,2,0,0,0-.47-1.55,2.33,2.33,0,0,0-1.34-.52l-0.37,0a0.38,0.38,0,0,1,0-.54c0.91,0.06,2,.06,2.44.06a7,7,0,0,0,1-.06c0.43,1.1,3,3.95,3.69,4.74l2.09,2.35c1.49,1.66,2.54,2.87,3.56,3.9h0a2.17,2.17,0,0,0,.09-0.91V115c0-1,0-3.82-.43-4.46a1.94,1.94,0,0,0-1.34-.43l-0.37,0a0.36,0.36,0,0,1,0-.54c1,0,1.73.06,2.54,0.06s1.49,0,2.22-.06a0.38,0.38,0,0,1,0,.54l-0.3,0a1.89,1.89,0,0,0-1.21.45c-0.37.78-.32,3.45-0.32,4.44v5.15Z" transform="translate(-895.44 -35.17)"/><path class="cls-2" d="M973.53,112.35c0-1.51-.11-2-1-2.09L972,110.2a0.32,0.32,0,0,1,0-.54c1.83-.11,3.58-0.17,5.41-0.17a13.52,13.52,0,0,1,4.74.65,6.46,6.46,0,0,1,4.38,6.36,7.07,7.07,0,0,1-3.77,6.42,10.41,10.41,0,0,1-4.83,1c-1.38,0-2.76-.17-3.51-0.17-0.91,0-1.68,0-2.7.06a0.42,0.42,0,0,1,0-.54l0.5-.06c1.25-.17,1.29-0.43,1.29-2.69v-8.19Zm1.77,7.7a4,4,0,0,0,.43,2.35c0.47,0.67,1.29.88,2.65,0.88,4.18,0,6.06-2.74,6.06-6.75,0-2.37-1.14-6.38-6.79-6.38a4.81,4.81,0,0,0-2.13.3,2.88,2.88,0,0,0-.22,1.64v8Z" transform="translate(-895.44 -35.17)"/><path class="cls-2" d="M990.91,112.81c0-2-.06-2.41-0.95-2.52l-0.69-.09a0.36,0.36,0,0,1,0-.54c1.21-.11,2.69-0.17,4.81-0.17a7.63,7.63,0,0,1,3.6.65,3.21,3.21,0,0,1,1.79,3,4,4,0,0,1-2.7,3.6,0.49,0.49,0,0,0,.11.52c1.72,2.78,2.87,4.51,4.33,5.73a2.59,2.59,0,0,0,1.49.6,0.18,0.18,0,0,1,0,.3,3.42,3.42,0,0,1-.95.11c-1.83,0-2.93-.54-4.46-2.72-0.56-.8-1.45-2.29-2.11-3.26a1.54,1.54,0,0,0-1.53-.69c-1,0-1,0-1,.47v2.72c0,2.26,0,2.52,1.29,2.69l0.45,0.06a0.42,0.42,0,0,1,0,.54c-1,0-1.7-.06-2.57-0.06s-1.68,0-2.69.06a0.42,0.42,0,0,1,0-.54l0.54-.06c1.25-.15,1.29-0.43,1.29-2.69v-7.74Zm1.77,3.08a1.7,1.7,0,0,0,.06.71,4,4,0,0,0,1.49.11,3.61,3.61,0,0,0,2.22-.56,3.09,3.09,0,0,0,1.08-2.67,3.18,3.18,0,0,0-3.45-3.32c-1.34,0-1.4.09-1.4,0.69v5Z" transform="translate(-895.44 -35.17)"/><path class="cls-2" d="M1009.7,120.5c0,2.31.13,2.65,1.29,2.74l0.82,0.06a0.42,0.42,0,0,1,0,.54c-1.34,0-2.07-.06-2.93-0.06s-1.68,0-2.83.06a0.42,0.42,0,0,1,0-.54l0.67-.06c1.25-.13,1.29-0.43,1.29-2.74v-1.1a4.33,4.33,0,0,0-.69-2.67l-2.54-5c-0.73-1.42-1.06-1.53-1.7-1.64l-0.6-.11a0.39,0.39,0,0,1,0-.54c0.69,0,1.47.06,2.5,0.06s1.77,0,2.31-.06a0.36,0.36,0,0,1,.06.54l-0.28,0c-0.75.11-.9,0.22-0.9,0.39a10.67,10.67,0,0,0,.67,1.66c0.8,1.6,1.6,3.3,2.44,4.79,0.67-1.14,1.38-2.39,2-3.64a19.63,19.63,0,0,0,1.4-2.85,1.18,1.18,0,0,0-.91-0.34l-0.39,0a0.36,0.36,0,0,1,0-.54c0.78,0,1.4.06,2.07,0.06s1.27,0,2-.06a0.36,0.36,0,0,1,0,.54l-0.6.11c-1.12.19-1.77,1.55-2.85,3.41l-1.36,2.35a5,5,0,0,0-1,3.49v1.12Z" transform="translate(-895.44 -35.17)"/><path class="cls-2" d="M967.09,96.94a13,13,0,0,1-6.94,1.68,13.39,13.39,0,0,1-7-1.68L906,99.17h110.36Z" transform="translate(-895.44 -35.17)"/></g></svg>